<svg width="185" height="110" viewBox="0 0 185 110" fill="none" xmlns="http://www.w3.org/2000/svg">
<path d="M102.663 109.579L62.9757 69.9101C60.6015 67.5359 57.5166 66.3396 54.4137 66.2227C54 66.2227 53.5863 66.2227 53.1726 66.2676C50.1777 66.4475 47.2549 67.6526 44.9795 69.9009L6.20801 108.672C7.47609 109.248 8.90612 109.572 10.372 109.572H102.717L102.663 109.579Z" fill="#02DA72"/>
<path d="M184.188 99.2582V84.2211L144.383 44.4159C141.963 41.9966 138.762 40.6836 135.38 40.6836C131.998 40.6836 128.77 42.0146 126.377 44.4159L87.21 83.5834L113.229 109.602H173.872C179.583 109.602 184.206 104.971 184.206 99.2686L184.188 99.2582Z" fill="#3BF89D"/>
<path d="M57.3816 39.6352C63.0926 39.6352 67.7422 35.0035 67.7422 29.2746C67.7422 23.5457 63.0926 18.9141 57.3816 18.9141C51.6707 18.9141 46.9941 23.5636 46.9941 29.2746C46.9941 34.9856 51.6437 39.6352 57.3816 39.6352Z" fill="#FFC642"/>
<path d="M39.6705 64.6379C47.5489 56.7415 60.3467 56.7415 68.2426 64.6109L81.9218 78.308L121.089 39.1405C124.912 35.3182 130.002 33.2228 135.407 33.2228C140.821 33.2228 145.858 35.3183 149.707 39.1405L184.214 73.6481V10.3336C184.214 4.62265 179.583 0 173.881 0L10.3336 0.00899353C4.62264 0.00899353 0 4.64062 0 10.3426V99.2614C0 100.736 0.323754 102.112 0.89934 103.425L39.6708 64.654L39.6705 64.6379ZM57.3788 11.4583C67.1907 11.4583 75.195 19.4447 75.195 29.2746C75.195 39.1044 67.1817 47.0908 57.3788 47.0908C47.5669 47.0908 39.5356 39.1044 39.5356 29.2746C39.5356 19.4447 47.5489 11.4583 57.3788 11.4583Z" fill="#F8FAFF"/>
</svg>
