<svg width="166" height="118" viewBox="0 0 166 118" fill="none" xmlns="http://www.w3.org/2000/svg">
<path d="M0.132812 32.1602L0.132813 103.86C0.132813 107.385 1.54584 110.765 4.06105 113.257C6.57627 115.749 9.98762 117.149 13.5447 117.149L151.833 117.149C155.39 117.149 158.801 115.749 161.316 113.257C163.832 110.765 165.245 107.385 165.245 103.86V32.1602L0.132812 32.1602ZM67.7712 91.8337V57.5673L97.6294 74.6432L67.7712 91.8337Z" fill="url(#paint0_linear_2630_6)"/>
<path d="M151.834 0.582031L136.105 27.5729L165.246 27.5729V13.802C165.227 10.2895 163.806 6.92714 161.293 4.44987C158.78 1.9726 155.379 0.581984 151.834 0.582031Z" fill="#FF6868"/>
<path d="M34.6228 0.582031L18.8945 27.5729H42.8459L58.5742 0.582031L34.6228 0.582031Z" fill="url(#paint1_linear_2630_6)"/>
<path d="M0.132813 13.867L0.132813 27.6378H13.5447L29.2729 0.578125L13.5447 0.578125C9.98762 0.578125 6.57627 1.9782 4.06105 4.47034C1.54584 6.96248 0.132813 10.3426 0.132813 13.867Z" fill="url(#paint2_linear_2630_6)"/>
<path d="M63.9265 0.578125L48.1982 27.5689H72.1496L87.8779 0.578125L63.9265 0.578125Z" fill="url(#paint3_linear_2630_6)"/>
<path d="M93.2282 0.578125L77.5 27.5689H101.451L117.18 0.578125L93.2282 0.578125Z" fill="url(#paint4_linear_2630_6)"/>
<path d="M122.531 0.582031L106.803 27.5729H130.754L146.482 0.582031L122.531 0.582031Z" fill="url(#paint5_linear_2630_6)"/>
<defs>
<linearGradient id="paint0_linear_2630_6" x1="82.6887" y1="32.1602" x2="82.6887" y2="117.149" gradientUnits="userSpaceOnUse">
<stop stop-color="#FF6868"/>
<stop offset="1" stop-color="#FB4949"/>
</linearGradient>
<linearGradient id="paint1_linear_2630_6" x1="18.8945" y1="14.0774" x2="58.5742" y2="14.0774" gradientUnits="userSpaceOnUse">
<stop stop-color="#FF6868"/>
<stop offset="1" stop-color="#FF6D6D"/>
</linearGradient>
<linearGradient id="paint2_linear_2630_6" x1="0.132813" y1="14.108" x2="29.2729" y2="14.108" gradientUnits="userSpaceOnUse">
<stop stop-color="#FF6868"/>
<stop offset="1" stop-color="#FF6D6D"/>
</linearGradient>
<linearGradient id="paint3_linear_2630_6" x1="48.1982" y1="14.0735" x2="87.8779" y2="14.0735" gradientUnits="userSpaceOnUse">
<stop stop-color="#FF6868"/>
<stop offset="1" stop-color="#FF6D6D"/>
</linearGradient>
<linearGradient id="paint4_linear_2630_6" x1="77.5" y1="14.0735" x2="117.18" y2="14.0735" gradientUnits="userSpaceOnUse">
<stop stop-color="#FF6868"/>
<stop offset="1" stop-color="#FF6D6D"/>
</linearGradient>
<linearGradient id="paint5_linear_2630_6" x1="106.803" y1="14.0774" x2="146.482" y2="14.0774" gradientUnits="userSpaceOnUse">
<stop stop-color="#FF6868"/>
<stop offset="1" stop-color="#FF6D6D"/>
</linearGradient>
</defs>
</svg>
